<?xml version="1.0" encoding="utf-8"?>
<svg viewBox="109.311 79.863 100 100" xmlns="http://www.w3.org/2000/svg">
  <path style="fill-opacity: 1; stroke: none; stroke-width: 3; stroke-linecap: round; stroke-linejoin: round; stroke-miterlimit: 4; stroke-dasharray: none; stroke-opacity: 1; fill: rgb(110, 110, 110); opacity: 0.7;" d="M 128.144 86.924 C 124.158 86.924 120.249 87.234 116.433 87.84 L 116.433 103.758 C 120.226 102.985 124.124 102.537 128.144 102.537 C 160.465 102.537 186.697 128.77 186.697 161.092 C 186.697 165.111 186.25 169.01 185.478 172.803 L 201.397 172.803 C 202.003 168.986 202.311 165.079 202.311 161.092 C 202.311 120.152 169.085 86.924 128.144 86.924 Z M 128.144 118.152 C 124.039 118.152 120.072 118.721 116.311 119.799 C 116.371 120.264 116.433 120.723 116.433 121.202 L 116.433 136.451 C 119.995 134.749 123.935 133.766 128.144 133.766 C 143.226 133.766 155.468 146.008 155.468 161.092 C 155.468 165.299 154.487 169.242 152.784 172.803 L 169.436 172.803 C 170.493 169.076 171.082 165.156 171.082 161.092 C 171.082 137.389 151.846 118.152 128.144 118.152 Z M 128.144 149.381 C 121.679 149.381 116.433 154.626 116.433 161.092 C 116.433 167.555 121.679 172.803 128.144 172.803 C 134.608 172.803 139.854 167.555 139.854 161.092 C 139.854 154.626 134.608 149.381 128.144 149.381 Z" id="path9653"/>
</svg>