<?xml version="1.0" encoding="UTF-8" standalone="no"?>
<svg
   xmlns:dc="http://purl.org/dc/elements/1.1/"
   xmlns:cc="http://creativecommons.org/ns#"
   xmlns:rdf="http://www.w3.org/1999/02/22-rdf-syntax-ns#"
   xmlns:svg="http://www.w3.org/2000/svg"
   xmlns="http://www.w3.org/2000/svg"
   xmlns:sodipodi="http://sodipodi.sourceforge.net/DTD/sodipodi-0.dtd"
   xmlns:inkscape="http://www.inkscape.org/namespaces/inkscape"
   height="16"
   width="16"
   version="1.0"
   id="svg8633"
   inkscape:version="0.91pre2+osxmenu r12797"
   sodipodi:docname="folder.svg"
   inkscape:export-filename="/Users/peter/Projects/iOCNews/iOCNews/Images.xcassets/folder.imageset/folder@3x.png"
   inkscape:export-xdpi="371.25"
   inkscape:export-ydpi="371.25">
  <metadata
     id="metadata8643">
    <rdf:RDF>
      <cc:Work
         rdf:about="">
        <dc:format>image/svg+xml</dc:format>
        <dc:type
           rdf:resource="http://purl.org/dc/dcmitype/StillImage" />
        <dc:title></dc:title>
      </cc:Work>
    </rdf:RDF>
  </metadata>
  <defs
     id="defs8641" />
  <sodipodi:namedview
     pagecolor="#ffffff"
     bordercolor="#666666"
     borderopacity="1"
     objecttolerance="10"
     gridtolerance="10"
     guidetolerance="10"
     inkscape:pageopacity="0"
     inkscape:pageshadow="2"
     inkscape:window-width="1530"
     inkscape:window-height="964"
     id="namedview8639"
     showgrid="false"
     inkscape:zoom="14.75"
     inkscape:cx="8"
     inkscape:cy="8"
     inkscape:window-x="217"
     inkscape:window-y="41"
     inkscape:window-maximized="0"
     inkscape:current-layer="svg8633" />
  <g
     opacity=".7"
     fill="#1e1e1e"
     transform="matrix(.86667 0 0 .86667 -172.04 -864.43)"
     fill-rule="evenodd"
     id="g8635">
    <path
       fill="#1e1e1e"
       d="m200.2 998.57c-0.28913 0-0.53125 0.24212-0.53125 0.53125v13.938c0 0.2985 0.23264 0.5312 0.53125 0.5312h15.091c0.2986 0 0.53125-0.2327 0.53125-0.5312l0.0004-8.1661c0-0.289-0.24212-0.5338-0.53125-0.5338h-12.161l-0.0004 6.349c0 0.2771-0.30237 0.5638-0.57937 0.5638s-0.57447-0.2867-0.57447-0.5638l0.0004-7.0055c0-0.2771 0.23357-0.4974 0.51057-0.4974h2.6507l8.3774 0.0003-0.0004-1.7029c0-0.3272-0.24549-0.6047-0.57258-0.6047h-7.5043v-1.7764c0-0.28915-0.23415-0.53125-0.52328-0.53125z"
       fill-rule="evenodd"
       id="path8637" />
  </g>
</svg>
