<?xml version="1.0" encoding="UTF-8" standalone="no"?>
<!-- Created with Inkscape (http://www.inkscape.org/) -->

<svg
   xmlns:dc="http://purl.org/dc/elements/1.1/"
   xmlns:cc="http://creativecommons.org/ns#"
   xmlns:rdf="http://www.w3.org/1999/02/22-rdf-syntax-ns#"
   xmlns:svg="http://www.w3.org/2000/svg"
   xmlns="http://www.w3.org/2000/svg"
   xmlns:sodipodi="http://sodipodi.sourceforge.net/DTD/sodipodi-0.dtd"
   xmlns:inkscape="http://www.inkscape.org/namespaces/inkscape"
   width="744.09448819"
   height="1052.3622047"
   id="svg2"
   version="1.1"
   inkscape:version="0.48.4 r9943 custom"
   sodipodi:docname="ios7.svg">
  <defs
     id="defs4" />
  <sodipodi:namedview
     id="base"
     pagecolor="#ffffff"
     bordercolor="#666666"
     borderopacity="1.0"
     inkscape:pageopacity="0.0"
     inkscape:pageshadow="2"
     inkscape:zoom="0.83906474"
     inkscape:cx="276.70299"
     inkscape:cy="859.88597"
     inkscape:document-units="px"
     inkscape:current-layer="layer1"
     showgrid="false"
     showguides="true"
     inkscape:guide-bbox="true"
     inkscape:window-width="1868"
     inkscape:window-height="1036"
     inkscape:window-x="52"
     inkscape:window-y="22"
     inkscape:window-maximized="0" />
  <metadata
     id="metadata7">
    <rdf:RDF>
      <cc:Work
         rdf:about="">
        <dc:format>image/svg+xml</dc:format>
        <dc:type
           rdf:resource="http://purl.org/dc/dcmitype/StillImage" />
        <dc:title></dc:title>
      </cc:Work>
    </rdf:RDF>
  </metadata>
  <g
     inkscape:label="Layer 1"
     inkscape:groupmode="layer"
     id="layer1">
    <g
       id="g3803"
       transform="translate(-30.986882,-443.68847)">
      <path
         inkscape:export-ydpi="90"
         inkscape:export-xdpi="90"
         inkscape:export-filename="/Users/peter/Projects/iOCNews/iOCNews/Resources/back-7@2x.png"
         inkscape:connector-curvature="0"
         id="path3054"
         d="M 82.80839,499.72763 63.753181,518.78284 82.8517,537.83805"
         style="fill:none;stroke:#000000;stroke-width:3;stroke-linecap:square;stroke-linejoin:miter;stroke-miterlimit:4;stroke-opacity:1;stroke-dasharray:none" />
      <rect
         transform="scale(-1,1)"
         inkscape:export-ydpi="90"
         inkscape:export-xdpi="90"
         inkscape:export-filename="/Users/peter/Projects/iOCNews/iOCNews/Resources/back-7@2x.png"
         y="474.78284"
         x="-97.302444"
         height="88"
         width="48"
         id="rect3824"
         style="fill:none;stroke:#dd2d32" />
    </g>
    <g
       id="g3785"
       transform="translate(27.248515,-555.63213)">
      <rect
         style="fill:none;stroke:#dd2d32"
         id="rect7850"
         width="56"
         height="88"
         x="-107.41922"
         y="586.7265"
         inkscape:export-filename="/Users/peter/Projects/iOCNews/iOCNews/Resources/text-7@2x.png"
         inkscape:export-xdpi="90"
         inkscape:export-ydpi="90"
         transform="scale(-1,1)" />
      <g
         inkscape:export-ydpi="90"
         inkscape:export-xdpi="90"
         inkscape:export-filename="/Users/peter/Projects/iOCNews/iOCNews/Resources/text-7@2x.png"
         transform="translate(-5.8540965,-9.7027842)"
         id="g7874">
        <g
           id="g7864"
           transform="translate(4,0)">
          <path
             style="fill:none;stroke:#000000;stroke-width:2.99999976;stroke-linecap:square;stroke-linejoin:miter;stroke-miterlimit:4;stroke-opacity:1;stroke-dasharray:none"
             d="m 75.046043,657.56782 -9.5,-22.94784 -9.5,23"
             id="path7860"
             inkscape:connector-curvature="0"
             inkscape:export-filename="/Users/peter/Projects/iOCNews/iOCNews/Resources/back-7@2x.png"
             inkscape:export-xdpi="90"
             inkscape:export-ydpi="90" />
          <path
             inkscape:connector-curvature="0"
             id="path7862"
             d="m 59.344813,650.05902 c 12.461947,0 12.461947,0 12.461947,0"
             style="fill:none;stroke:#000000;stroke-width:3;stroke-linecap:butt;stroke-linejoin:miter;stroke-miterlimit:4;stroke-opacity:1;stroke-dasharray:none" />
        </g>
        <g
           id="g7868"
           transform="matrix(1.3636364,0,0,1.5287007,8.165074,-347.29478)">
          <path
             inkscape:export-ydpi="90"
             inkscape:export-xdpi="90"
             inkscape:export-filename="/Users/peter/Projects/iOCNews/iOCNews/Resources/back-7@2x.png"
             inkscape:connector-curvature="0"
             id="path7870"
             d="m 75.046043,657.56782 -9.5,-22.94784 -9.5,23"
             style="fill:none;stroke:#000000;stroke-width:2.07783341;stroke-linecap:square;stroke-linejoin:miter;stroke-miterlimit:4;stroke-opacity:1;stroke-dasharray:none" />
          <path
             style="fill:none;stroke:#000000;stroke-width:2.07783341;stroke-linecap:butt;stroke-linejoin:miter;stroke-miterlimit:4;stroke-opacity:1;stroke-dasharray:none"
             d="m 59.344813,650.05902 c 12.461947,0 12.461947,0 12.461947,0"
             id="path7872"
             inkscape:connector-curvature="0" />
        </g>
      </g>
    </g>
    <g
       id="g3807"
       transform="translate(41.569637,-441.18847)">
      <path
         inkscape:export-ydpi="45"
         inkscape:export-xdpi="45"
         inkscape:export-filename="/Users/peter/Projects/iOCNews/iOCNews/Resources/star_open-7.png"
         transform="matrix(0.05852046,0,0,-0.06153206,187.95039,535.78629)"
         inkscape:transform-center-y="-23.410364"
         d="M 100.00001,658.2496 -10.89039,433.56114 -258.84882,397.53068 -79.424408,222.63509 -121.78078,-24.321409 100.00001,92.275635 321.78076,-24.321421 279.42441,222.63511 458.84882,397.53066 210.89038,433.56115 z"
         inkscape:randomized="0"
         inkscape:rounded="0"
         inkscape:flatsided="false"
         sodipodi:arg2="2.1991149"
         sodipodi:arg1="1.5707963"
         sodipodi:r2="188.65799"
         sodipodi:r1="377.31598"
         sodipodi:cy="280.93362"
         sodipodi:cx="100"
         sodipodi:sides="5"
         id="path2987"
         style="fill:none;stroke:#000000;stroke-width:33.32923889;stroke-linecap:butt;stroke-linejoin:round;stroke-miterlimit:4;stroke-opacity:1;stroke-dasharray:none"
         sodipodi:type="star" />
      <rect
         style="fill:none;stroke:#dd2d32"
         id="rect8472"
         width="48"
         height="88"
         x="-217.80243"
         y="472.28284"
         inkscape:export-filename="/Users/peter/Projects/iOCNews/iOCNews/Resources/star_open-7.png"
         inkscape:export-xdpi="45"
         inkscape:export-ydpi="45"
         transform="scale(-1,1)" />
    </g>
    <g
       id="g3795"
       transform="translate(-22.782338,-553.18859)">
      <path
         inkscape:export-ydpi="45"
         inkscape:export-xdpi="45"
         inkscape:export-filename="/Users/peter/Projects/iOCNews/iOCNews/Resources/gear-7.png"
         sodipodi:nodetypes="ccccccccccsccccccccsccccccccsccccccccsccccccssssc"
         style="fill:none;stroke:#000000;stroke-width:1.99999988;stroke-miterlimit:4;stroke-dasharray:none"
         inkscape:connector-curvature="0"
         d="m 192.70171,607.28636 c -0.44289,0.0302 -0.87359,0.0986 -1.30872,0.14863 l -0.86569,0 -1.04108,5.68087 c -1.69696,0.3863 -1.65025,0.33694 -3.08625,1.22819 l -4.66989,-3.36094 c -1.26267,0.97998 -3.78564,3.8024 -4.79511,5.0403 l 3.16593,4.72888 c -0.89962,1.29007 -0.8878,1.63283 -1.49819,3.24593 l -5.65136,0.89237 c -0.10345,0.84383 -0.14892,2.55221 -0.14892,3.42377 0,0.71322 0.0197,2.3547 0.0893,3.04964 l 5.65164,1.01133 c 0.40184,1.96248 0.43076,2.25377 1.49625,3.87185 l -3.3612,4.60991 c 0.96259,1.19519 3.4122,3.78828 4.60997,4.7472 l 4.7592,-3.27165 c 1.66341,1.06098 2.0803,0.90324 4.09285,1.26956 l 0.89244,5.62125 c 0.63396,0.0577 2.12059,0.0596 2.76981,0.0596 0.9163,0 2.62783,-0.0347 3.51333,-0.14861 l 1.07076,-5.74051 c 1.91077,-0.47557 2.30231,-0.32611 3.86117,-1.43506 l 4.58088,3.33127 c 1.18779,-1.0105 3.64836,-3.8515 4.58683,-5.09965 l -3.33152,-4.81845 c 0.90213,-1.55817 0.72025,-1.63403 1.03723,-3.47258 l 5.62169,-0.89237 c 0.0496,-0.58651 0.059,-2.09347 0.059,-2.69275 0,-1.04156 -0.12092,-2.89883 -0.26763,-3.89991 l -5.71125,-1.04099 c -0.44733,-1.65248 -0.57818,-1.45603 -1.50833,-2.84226 l 3.3612,-4.61021 c -1.04192,-1.27394 -3.56833,-3.95605 -4.87759,-4.95545 l -4.84851,3.33126 c -1.39357,-0.82414 -1.32221,-0.85293 -2.95039,-1.21094 l -0.89244,-5.65093 c -0.81202,-0.0956 -2.46726,-0.14891 -3.30505,-0.14891 -0.22658,0 -0.45953,-0.007 -0.68416,0 -0.10953,0.003 -0.21798,-0.007 -0.32724,0 -0.0294,0.002 -0.0599,-0.002 -0.0893,0 l 2.9e-4,2.9e-4 z m 0.77346,14.4548 c 0.10876,-0.004 0.21715,0 0.32724,0 3.52094,0 6.39515,2.874 6.39515,6.39495 0,3.52065 -2.87421,6.36498 -6.39515,6.36498 -3.52093,0 -6.36547,-2.84433 -6.36547,-6.36498 0,-3.41086 2.66954,-6.22385 6.03823,-6.39495 z"
         id="path3790"
         stroke-miterlimit="4"
         label="Ebene 1" />
      <rect
         transform="scale(-1,1)"
         inkscape:export-ydpi="45"
         inkscape:export-xdpi="45"
         inkscape:export-filename="/Users/peter/Projects/iOCNews/iOCNews/Resources/gear-7.png"
         y="584.28296"
         x="-217.80225"
         height="88"
         width="48"
         id="rect9052"
         style="fill:none;stroke:#dd2d32" />
    </g>
    <g
       id="g3799"
       transform="translate(23.013118,-554.18847)">
      <path
         inkscape:export-ydpi="90"
         inkscape:export-xdpi="90"
         inkscape:export-filename="/Users/peter/Projects/iOCNews/iOCNews/Resources/mark-7@2x.png"
         sodipodi:nodetypes="ccc"
         inkscape:connector-curvature="0"
         id="path9605"
         d="m 258.21961,634.82328 13.2847,14.95953 23.69834,-41"
         style="fill:none;stroke:#000000;stroke-width:2.99999952;stroke-linecap:butt;stroke-linejoin:miter;stroke-miterlimit:4;stroke-opacity:1;stroke-dasharray:none" />
      <rect
         style="fill:none;stroke:#dd2d32"
         id="rect9607"
         width="48"
         height="88"
         x="-300.71112"
         y="585.28284"
         inkscape:export-filename="/Users/peter/Projects/iOCNews/iOCNews/Resources/mark-7@2x.png"
         inkscape:export-xdpi="90"
         inkscape:export-ydpi="90"
         transform="scale(-1,1)" />
    </g>
  </g>
</svg>
